<?xml version="1.0" encoding="UTF-8"?>
<svg version="1.1" xmlns="http://www.w3.org/2000/svg" width="512" height="512">
<path d="M0 0 C2.31963757 -0.00457048 4.63927379 -0.00987861 6.95890808 -0.0158844 C11.80444869 -0.02478238 16.6498242 -0.02243077 21.49536133 -0.01245117 C27.6647483 -0.00097504 33.83356171 -0.02116995 40.00287342 -0.05036831 C44.78939863 -0.06883161 49.575789 -0.06841759 54.36234093 -0.06273079 C56.63502493 -0.06257876 58.90771878 -0.06852337 61.18036842 -0.08102226 C83.43088729 -0.18616386 102.71178067 2.38924638 119.53125 18.5703125 C129.59569793 29.76491088 136.33593526 43.46114148 136.16796875 58.74609375 C136.15894531 59.81472656 136.14992188 60.88335937 136.140625 61.984375 C136.12322266 63.19673828 136.12322266 63.19673828 136.10546875 64.43359375 C136.69634277 64.42693192 137.2872168 64.42027008 137.89599609 64.41340637 C144.12689693 64.34628494 150.35769273 64.30147981 156.58886719 64.26879883 C158.90466493 64.25384679 161.22043504 64.23347778 163.53613281 64.20727539 C191.30411806 63.90127555 216.71093723 67.73669017 237.75268555 87.42333984 C245.87767288 95.41204279 253.55376345 104.61712896 256.91796875 115.68359375 C257.65103089 119.45317798 257.65103089 119.45317798 260.01171875 120.55078125 C260.70265625 120.84210938 261.39359375 121.1334375 262.10546875 121.43359375 C273.69981036 129.52266929 281.88358398 143.8843461 284.72827148 157.59790039 C285.49753978 163.3811051 285.43812191 169.21012817 285.42114258 175.03466797 C285.41798487 177.29704125 285.44149743 179.55810023 285.46679688 181.8203125 C285.55377116 201.14398306 279.00963669 216.17254979 266.10546875 230.43359375 C265.77546875 230.76359375 265.44546875 231.09359375 265.10546875 231.43359375 C265.00402124 232.96039903 264.97194839 234.49186847 264.96743774 236.02203369 C264.95925774 237.5104628 264.95925774 237.5104628 264.95091248 239.02896118 C264.94987015 240.12703094 264.94882782 241.22510071 264.94775391 242.35644531 C264.94267319 243.506138 264.93759247 244.65583069 264.93235779 245.84036255 C264.92162329 248.34872922 264.91301531 250.85710566 264.90623856 253.36548615 C264.89447582 257.34296329 264.87530593 261.32036169 264.8531189 265.29779053 C264.79121885 276.61124718 264.73737384 287.92470163 264.70410156 299.23828125 C264.68566052 305.48132157 264.65659623 311.72422186 264.61609685 317.96715903 C264.59516243 321.2668725 264.58128415 324.56637426 264.57728958 327.86615753 C264.57234374 331.56364624 264.54908704 335.26062409 264.52197266 338.95800781 C264.52497879 340.0317868 264.52798492 341.1055658 264.53108215 342.21188354 C264.33532471 360.31984656 257.92814684 376.49126392 245.10546875 389.43359375 C231.0924312 401.72135992 216.09600431 406.91271521 197.62800598 406.8212738 C195.65236043 406.82935211 195.65236043 406.82935211 193.63680285 406.83759362 C190.00976495 406.85196078 186.38295596 406.84783107 182.75590599 406.8404268 C178.8327633 406.83567549 174.90966875 406.84822243 170.98654175 406.85844421 C163.31109051 406.87560076 155.63572126 406.87647856 147.96025584 406.87123131 C141.71684454 406.86718157 135.47345738 406.8686427 129.23004723 406.87397957 C128.3397155 406.87472799 127.44938378 406.87547641 126.5320723 406.87624751 C124.72302987 406.87777908 122.91398745 406.87931743 121.10494503 406.88086248 C104.15609539 406.8945768 87.20729196 406.88915793 70.25844338 406.87767727 C54.77934158 406.86775175 39.30035944 406.88067567 23.82127611 406.90461146 C7.90122348 406.92904227 -8.01877352 406.93860021 -23.9388445 406.93195873 C-32.86619343 406.92847461 -41.79345045 406.93064478 -50.72078514 406.94820976 C-58.32257558 406.96298187 -65.92420942 406.9635024 -73.52599695 406.94613885 C-77.39843815 406.9376664 -81.27060021 406.93538617 -85.14302635 406.95079041 C-114.99425762 407.06113074 -114.99425762 407.06113074 -127.89453125 402.43359375 C-128.7753194 402.119533 -129.65610754 401.80547224 -130.56358624 401.48189449 C-132.61196429 400.70679196 -134.55460501 399.83675828 -136.51953125 398.87109375 C-137.21626953 398.5344873 -137.91300781 398.19788086 -138.63085938 397.85107422 C-159.18169698 387.45878304 -173.86340308 369.16036853 -181.2471962 347.48299408 C-185.47330114 334.10355353 -185.25973048 320.34695554 -185.12182999 306.47678375 C-185.08910316 302.86754377 -185.08087078 299.25897861 -185.07955933 295.64959717 C-185.07399692 285.4010115 -185.0447145 275.15299061 -184.953125 264.90478516 C-184.89853029 258.60193999 -184.88806764 252.30028564 -184.90526962 245.99724579 C-184.90333763 243.61316622 -184.88505675 241.22903707 -184.8494606 238.84522247 C-184.63889809 224.3446668 -185.11391478 215.46625713 -194.89453125 204.43359375 C-203.45262186 190.0821936 -206.09110623 175.10683182 -206.13476562 158.65087891 C-206.14438248 156.46737241 -206.17541095 154.28484519 -206.20703125 152.1015625 C-206.39455355 127.52899548 -197.81955059 107.15149688 -180.89453125 89.43359375 C-180.35441406 88.81871094 -179.81429687 88.20382813 -179.2578125 87.5703125 C-165.8670807 72.89784819 -144.44908658 65.30501507 -125.00738525 64.28161621 C-117.30290775 64.06879123 -109.60032492 64.15890181 -101.89453125 64.24609375 C-99.55860243 64.26117577 -97.22266413 64.27485791 -94.88671875 64.28710938 C-89.22244587 64.31981747 -83.55853421 64.3697347 -77.89453125 64.43359375 C-77.89969757 63.60649902 -77.90486389 62.7794043 -77.91018677 61.92724609 C-77.91621414 60.30230225 -77.91621414 60.30230225 -77.92236328 58.64453125 C-77.9275296 57.56993652 -77.93269592 56.4953418 -77.9380188 55.38818359 C-77.70629681 39.64474789 -68.31499351 25.46446332 -57.39453125 14.80859375 C-53.6370642 11.69336567 -49.52314828 9.42063064 -45.20703125 7.18359375 C-44.58441406 6.85407715 -43.96179688 6.52456055 -43.3203125 6.18505859 C-29.53085883 -0.60888846 -14.98442951 -0.02598063 0 0 Z M-30.734375 50.29296875 C-31.27771484 51.22882813 -31.27771484 51.22882813 -31.83203125 52.18359375 C-32.21230469 52.7971875 -32.59257812 53.41078125 -32.984375 54.04296875 C-34.31974903 57.26632677 -34.31974903 57.26632677 -34.89453125 64.43359375 C7.34546875 64.43359375 49.58546875 64.43359375 93.10546875 64.43359375 C91.66613638 54.39352839 91.66613638 54.39352839 85.47372437 47.3204422 C79.950718 44.35047038 75.35172881 43.85978113 69.14453125 43.91601562 C68.18085632 43.90900635 67.2171814 43.90199707 66.2243042 43.89477539 C63.05939362 43.8772636 59.8953874 43.88879423 56.73046875 43.90234375 C54.51904123 43.89964689 52.30761488 43.89576285 50.09619141 43.89074707 C45.46961131 43.88486123 40.84334088 43.89338575 36.21679688 43.91210938 C30.29866891 43.93489801 24.38126665 43.92177007 18.46316528 43.89781952 C13.89911471 43.88333701 9.33523503 43.88797885 4.7711792 43.89833069 C2.58957838 43.90099118 0.40796184 43.89775218 -1.77362061 43.88841248 C-4.82736059 43.87820671 -7.87993979 43.89380491 -10.93359375 43.91601562 C-11.82733704 43.9079187 -12.72108032 43.89982178 -13.64190674 43.89147949 C-20.28110057 43.98053855 -25.94988125 45.4576842 -30.734375 50.29296875 Z M-152.3671875 122.58984375 C-162.54816628 134.87992556 -163.81657567 149.17493767 -162.65625 164.6015625 C-161.36496582 175.51878329 -157.13564318 185.89972412 -148.89453125 193.43359375 C-147.51915844 194.36570374 -146.11965275 195.26311448 -144.69921875 196.125 C-143.98491699 196.56142822 -143.27061523 196.99785645 -142.53466797 197.44750977 C-141.99342285 197.77291748 -141.45217773 198.0983252 -140.89453125 198.43359375 C-140.9102417 197.41112549 -140.92595215 196.38865723 -140.94213867 195.33520508 C-140.99714605 191.47916798 -141.03113396 187.62316422 -141.05932617 183.7668457 C-141.07425379 182.10955948 -141.09460335 180.45231163 -141.12084961 178.79516602 C-141.4218779 159.2755471 -138.12830346 142.10041891 -124.21362305 127.5637207 C-114.84419953 118.22905141 -105.23932668 113.52271043 -92.89453125 109.43359375 C-92.89453125 109.10359375 -92.89453125 108.77359375 -92.89453125 108.43359375 C-97.55351355 108.35872136 -102.2121358 108.30465543 -106.87158203 108.26879883 C-108.45237336 108.25383104 -110.03312403 108.23344938 -111.61376953 108.20727539 C-127.63518053 107.94886554 -140.95571344 110.34600334 -152.3671875 122.58984375 Z M-140.89453125 245.43359375 C-140.9875875 256.04812533 -141.05847602 266.66255839 -141.10177994 277.27741623 C-141.12257331 282.20738987 -141.1507386 287.13708254 -141.19628906 292.06689453 C-141.24004315 296.83261084 -141.26373026 301.59805845 -141.27404022 306.36396027 C-141.2813789 308.17387364 -141.29570833 309.98377383 -141.31745148 311.79357147 C-141.50050179 327.6746515 -139.46552138 339.235458 -128.33203125 351.18359375 C-124.19594532 355.57154206 -124.19594532 355.57154206 -118.89453125 357.43359375 C-119.05529648 356.32165649 -119.21606171 355.20971924 -119.38169861 354.06408691 C-119.99202673 349.15362172 -120.06846095 344.28908449 -120.09985352 339.34570312 C-120.10975311 338.36917786 -120.11965271 337.39265259 -120.12985229 336.38653564 C-120.1612457 333.18349569 -120.18613643 329.98044095 -120.2109375 326.77734375 C-120.2315262 324.54674918 -120.25252315 322.31615834 -120.27391052 320.08557129 C-120.3289334 314.2331038 -120.37842944 308.38060226 -120.42675781 302.52807617 C-120.47711784 296.54863477 -120.532728 290.56924243 -120.58789062 284.58984375 C-120.69522999 272.87113572 -120.79672813 261.15238498 -120.89453125 249.43359375 C-122.72622443 248.94819506 -124.55999184 248.47062189 -126.39453125 247.99609375 C-127.9259375 247.59583984 -127.9259375 247.59583984 -129.48828125 247.1875 C-133.29326486 246.34534193 -137.0230592 245.86703029 -140.89453125 245.43359375 Z " fill="#262656" transform="translate(226.89453125,41.56640625)"/>
<path d="M0 0 C1.09936776 -0.00367669 2.19873551 -0.00735338 3.33141744 -0.01114148 C7.01061241 -0.02214348 10.6897791 -0.02601623 14.36898804 -0.02983093 C17.0089942 -0.03609815 19.64899739 -0.04273281 22.28900146 -0.04974365 C30.20612083 -0.06945458 38.12324136 -0.07956631 46.04037911 -0.08847144 C49.77443179 -0.09286216 53.50848306 -0.09822684 57.24253464 -0.10346031 C69.66425342 -0.12046534 82.08597134 -0.13495868 94.50769997 -0.14220905 C97.72708767 -0.14411874 100.94647536 -0.1460391 104.16586304 -0.147995 C104.96596048 -0.14847874 105.76605792 -0.14896248 106.59040074 -0.14946087 C119.54660316 -0.15775831 132.50271317 -0.18309361 145.45887525 -0.21557567 C158.77861764 -0.24869553 172.09831313 -0.26666216 185.4180969 -0.26985329 C192.88946292 -0.27201357 200.36069407 -0.2806915 207.83201981 -0.30631447 C214.19551508 -0.32808873 220.55884268 -0.33603893 226.92237099 -0.32634769 C230.16460625 -0.32182262 233.40642616 -0.32579491 236.64862823 -0.34310913 C255.215149 -0.43668016 269.95274676 -0.06865916 284.21420288 13.21357727 C295.77711111 25.27265507 296.45387015 38.04146047 296.27670288 53.88935852 C295.9330062 65.46162578 292.38025144 75.21008543 284.55795288 83.83467102 C283.71232788 84.59779602 282.86670288 85.36092102 281.99545288 86.14717102 C281.06732788 86.99279602 280.13920288 87.83842102 279.18295288 88.70967102 C272.34150247 94.24233392 264.75662237 96.19961651 256.32748413 98.02607727 C255.19567215 98.27893997 254.06386017 98.53180267 252.89775085 98.79232788 C239.53236635 101.74771031 226.11021872 104.4278264 212.68295288 107.08467102 C210.69217334 107.48056264 208.70151231 107.87704674 206.71085072 108.27353096 C190.46189144 111.50866345 174.20111045 114.67441827 157.90951538 117.6879425 C150.03988633 119.15028284 142.19989901 120.71665349 134.37045288 122.38154602 C133.47578812 122.57053467 132.58112335 122.75952332 131.65934753 122.95423889 C127.32849319 123.86950166 123.00095899 124.79668589 118.67782593 125.74775696 C117.12105623 126.07935232 115.56417692 126.41043366 114.00717163 126.74092102 C113.31305176 126.89881104 112.61893188 127.05670105 111.90377808 127.21937561 C102.42203078 129.19409091 92.76470658 126.18633784 83.44467163 124.31147766 C81.97870627 124.01877082 80.5126913 123.72631232 79.04663086 123.43408203 C75.08334938 122.64329934 71.12079704 121.8489188 67.15839005 121.05376744 C63.0011757 120.2200528 58.84336508 119.38932174 54.68563843 118.5581665 C47.70484883 117.1621849 40.72452178 115.76390935 33.74447632 114.36421204 C25.6880046 112.74868492 17.63085928 111.13655324 9.57333279 109.52629572 C1.80527968 107.97382623 -5.96233398 106.41916911 -13.72973633 104.86344719 C-17.02763703 104.202941 -20.32568021 103.54315308 -23.62384033 102.88394356 C-27.51152337 102.10678521 -31.39881383 101.3276917 -35.28581619 100.54713631 C-36.7078303 100.26188901 -38.12997331 99.97728343 -39.55225754 99.69338608 C-61.23240262 95.36458839 -61.23240262 95.36458839 -65.00454712 92.14717102 C-67.52317738 84.9373642 -67.33557131 78.07263182 -67.31704712 70.52217102 C-67.3331604 69.23181946 -67.34927368 67.9414679 -67.36587524 66.61201477 C-67.3753381 47.81877936 -62.06738878 32.13915232 -48.76626587 18.77217102 C-34.55329043 5.26280823 -19.33071536 -0.00348954 0 0 Z " fill="#D2D2D2" transform="translate(152.00454711914063,148.8528289794922)"/>
<path d="M0 0 C0.09311726 10.46687588 0.16397523 20.93365148 0.20724869 31.40085888 C0.22802898 36.26242504 0.25616966 41.12370558 0.30175781 45.98510742 C0.34555947 50.68599017 0.36920878 55.38660004 0.37950897 60.08767128 C0.38683927 61.87163901 0.40115171 63.65559361 0.42292023 65.43944359 C0.6197506 82.25398986 -2.00038709 95.40524929 -13.625 108.1875 C-20.33537088 114.66469197 -29.35782209 119.11388349 -38.74341774 119.13422108 C-39.69966533 119.13867892 -40.65591293 119.14313676 -41.64113772 119.14772969 C-42.68878499 119.14754533 -43.73643226 119.14736097 -44.81582642 119.14717102 C-45.9310818 119.15084771 -47.04633719 119.1545244 -48.1953882 119.1583125 C-51.94618139 119.16935787 -55.69694688 119.17319464 -59.44775391 119.17700195 C-62.13159348 119.18326595 -64.81543008 119.18989989 -67.49926758 119.19691467 C-75.56297199 119.21666579 -83.62667763 119.22674367 -91.69040018 119.23564246 C-95.48959883 119.24002766 -99.28879608 119.24539388 -103.08799362 119.25063133 C-115.72062452 119.26764242 -128.35325456 119.28213596 -140.98589516 119.28938007 C-144.26322048 119.29128991 -147.5405458 119.29321025 -150.81787109 119.29516602 C-152.0396861 119.29589163 -152.0396861 119.29589163 -153.28618424 119.2966319 C-166.47739823 119.30492989 -179.66852148 119.33026343 -192.85969587 119.36274669 C-206.40872129 119.39583861 -219.95770063 119.41383077 -233.50676668 119.41702431 C-241.11166091 119.41918746 -248.71642282 119.42790739 -256.32127762 119.45348549 C-262.79874973 119.47522169 -269.27605736 119.48322863 -275.75356181 119.47351871 C-279.05616007 119.46898233 -282.3583493 119.47301563 -285.66091537 119.49028015 C-289.24831916 119.5079822 -292.83486714 119.50089997 -296.42227173 119.48774719 C-297.45653467 119.49871644 -298.49079761 119.50968568 -299.55640185 119.52098733 C-306.15858842 119.46269636 -312.31256128 118.59383601 -318 115 C-321.72950254 109.04557004 -321.14017021 101.90918341 -321.11352539 95.13916016 C-321.11367142 94.16292694 -321.11381744 93.18669373 -321.1139679 92.18087769 C-321.11327345 88.96691637 -321.10550297 85.75301364 -321.09765625 82.5390625 C-321.09579041 80.30561352 -321.09436729 78.07216413 -321.09336853 75.8387146 C-321.08955644 69.96973535 -321.07973733 64.10078097 -321.06866455 58.23181152 C-321.0584223 52.23917985 -321.05386488 46.24654415 -321.04882812 40.25390625 C-321.03811388 28.50259326 -321.02105317 16.7512987 -321 5 C-312.77706318 5.55244353 -304.85384839 6.86385761 -296.78515625 8.51171875 C-295.53536484 8.7624263 -294.28557343 9.01313385 -292.99790955 9.2714386 C-290.35571096 9.80170845 -287.71430517 10.33570435 -285.07348633 10.87280273 C-281.13432985 11.67393238 -277.19323123 12.46522964 -273.25195312 13.25585938 C-260.58015716 15.80612105 -247.92677229 18.42780691 -235.29296875 21.16015625 C-224.30844589 23.53494396 -213.30310156 25.72110058 -202.25 27.75 C-199.88090819 28.18662941 -197.51206357 28.62448015 -195.14373779 29.06524658 C-193.70609038 29.33268055 -192.26801848 29.59784938 -190.82940674 29.86004639 C-187.54421889 30.46991558 -184.34197274 31.18067209 -181.13183594 32.09472656 C-172.82954035 34.17608563 -164.635834 32.81968871 -156.3894043 31.12329102 C-155.37758087 30.9231691 -154.36575745 30.72304718 -153.32327271 30.51686096 C-149.98837782 29.85492694 -146.65637375 29.17948573 -143.32421875 28.50390625 C-140.95783307 28.03138921 -138.59127767 27.55972138 -136.2245636 27.08885193 C-129.97497925 25.84309627 -123.72775151 24.58589312 -117.48095703 23.32623291 C-111.29660372 22.08114324 -105.11014633 20.84661094 -98.92382812 19.61132812 C-89.2569924 17.67981802 -79.59158233 15.74133917 -69.92724609 13.79736328 C-60.83316448 11.96816405 -51.73723615 10.14858173 -42.63916016 8.33935547 C-40.54498381 7.92246059 -38.45081155 7.50554522 -36.35664368 7.08860779 C-33.41520459 6.5030282 -30.47365927 5.91802088 -27.53168297 5.33514595 C-24.88641831 4.81100495 -22.24162991 4.28451938 -19.59692383 3.75756836 C-18.83722857 3.60777212 -18.0775333 3.45797588 -17.29481697 3.30364037 C-13.71788587 2.58880844 -10.1815402 1.80569849 -6.65019226 0.89015198 C-3 0 -3 0 0 0 Z " fill="#D2D2D2" transform="translate(427,286)"/>
<path d="M0 0 C11.80205746 4.99317816 18.75561259 17.59993535 23.80859375 28.69921875 C27.02810414 37.6188459 27.34307608 46.20108851 27.31567383 55.60107422 C27.31251612 57.8634475 27.33602868 60.12450648 27.36132812 62.38671875 C27.44830241 81.71038931 20.90416794 96.73895604 8 111 C7.67 111.33 7.34 111.66 7 112 C6.89855249 113.52680528 6.86647964 115.05827472 6.86196899 116.58843994 C6.85651566 117.58072601 6.85106232 118.57301208 6.84544373 119.59536743 C6.8444014 120.69343719 6.84335907 121.79150696 6.84228516 122.92285156 C6.83720444 124.07254425 6.83212372 125.22223694 6.82688904 126.4067688 C6.81615454 128.91513547 6.80754656 131.42351191 6.80076981 133.9318924 C6.78900707 137.90936954 6.76983718 141.88676794 6.74765015 145.86419678 C6.6857501 157.17765343 6.63190509 168.49110788 6.59863281 179.8046875 C6.58019177 186.04772782 6.55112748 192.29062811 6.5106281 198.53356528 C6.48969368 201.83327875 6.4758154 205.13278051 6.47182083 208.43256378 C6.46687499 212.13005249 6.44361829 215.82703034 6.41650391 219.52441406 C6.42101311 221.13508255 6.42101311 221.13508255 6.4256134 222.77828979 C6.22985596 240.88625281 -0.17732191 257.05767017 -13 270 C-19.9248375 276.07225833 -27.28065685 280.94878669 -36 284 C-36.66281982 284.26111572 -37.32563965 284.52223145 -38.00854492 284.79125977 C-48.0570598 288.2023156 -58.72219016 287.32354646 -69.1875 287.1875 C-71.20897442 287.17242767 -73.23045969 287.15874378 -75.25195312 287.14648438 C-80.1682401 287.11367671 -85.0839985 287.06203458 -90 287 C-90 286.67 -90 286.34 -90 286 C-89.030625 285.79246094 -88.06125 285.58492188 -87.0625 285.37109375 C-72.09105519 282.00011487 -58.95910456 276.83856046 -47 267 C-46.23429687 266.40832031 -45.46859375 265.81664062 -44.6796875 265.20703125 C-29.96092415 253.18072461 -19.43338971 233.1138908 -17.20027161 214.36502838 C-16.81823459 209.85351328 -16.90025385 205.3415489 -16.9375 200.81738281 C-16.9469394 198.55169778 -16.95612362 196.28601167 -16.96508789 194.02032471 C-16.97138214 192.82845802 -16.97767639 191.63659134 -16.98416138 190.40860748 C-17.01130254 184.05886973 -17.0012501 177.70915457 -16.99609375 171.359375 C-16.98988977 163.29657991 -16.99418258 155.23449552 -17.05126953 147.171875 C-17.09739527 140.63955562 -17.09601281 134.10818928 -17.06713867 127.57576752 C-17.06406933 125.09600399 -17.07684737 122.61616548 -17.10620117 120.13657379 C-17.36859856 96.67958948 -17.36859856 96.67958948 -9.15646362 88.12095642 C-8.08901413 87.07108299 -8.08901413 87.07108299 -7 86 C-5.42721949 83.4926794 -4.32865585 81.03419941 -3.125 78.3125 C-2.84309814 77.67731445 -2.56119629 77.04212891 -2.27075195 76.38769531 C3.41095466 63.39052218 5.39093461 51.12398817 5.375 36.9375 C5.37556396 35.66849854 5.37612793 34.39949707 5.37670898 33.09204102 C5.25851031 22.92760062 3.85806283 13.72200489 1 4 C0.66021503 2.66829618 0.32292559 1.33589219 0 0 Z " fill="#D1D1D1" transform="translate(485,161)"/>
</svg>
